<svg id="svga-svgcanvas-elements-clothes-3" xmlns="http://www.w3.org/2000/svg" version="1.1" xlink="http://www.w3.org/1999/xlink" class="svga-svg" viewBox="0 0 200 200" preserveAspectRatio="xMinYMin meet" style="position:relative;overflow:hidden;left:0px;top:0px;"><g id="SvgjsG2783" transform="scale(0.9 0.9) translate(11.11111111111111 5.555555555555555)"><path id="SvgjsPath2784" d="M190.858 199.866c-6.008-10.158-13.474-11.973-19.628-13.936 -6.323-2.016-19.346-3.178-26.449-4.6 -6.86-1.373-23.153-5.789-23.339-13.488 -0.08-3.341 0.643-10.79 1.517-18.372 7.275-5.016 13.825-11.04 16.902-15.759 8.202-12.577 18.907-56.897 18.919-56.95l0.005 0c1.283-4.916 1.961-10.072 1.952-15.389 -0.051-33.474-27.343-60.559-60.964-60.507C66.155 0.919 38.949 28.09 39.001 61.564c0.008 5.316 0.704 10.471 2.002 15.382h0.001c0.012 0.053 10.856 44.339 19.098 56.891 3.051 4.647 9.488 10.558 16.664 15.511 0.88 7.624 1.612 15.137 1.532 18.495 -0.184 7.699-16.48 12.115-23.341 13.488 -7.104 1.422-20.125 2.584-26.448 4.6 -6.156 1.963-13.624 3.777-19.632 13.936 -3.644 6.16-6.008 16.133-6.008 27.133h194C196.869 215.999 194.509 206.026 190.858 199.866z" data-colored="false" data-filltype="#ffffff" data-stroketype="none" fill="#ffffff" stroke-width="none" opacity="1"></path><path id="SvgjsPath2785" d="M101.688 234.395c-25.465 0-58.198-0.15-68.039-0.572 4.435-21.314 2.778-32.293-2.083-51.712 7.118-1.747 11.921-2.536 15.448-3.115 3.791-0.622 6.156-1.01 8.266-2.107 9.996 10.482 26.913 21.372 42.48 22.287 0.853 0.055 1.725 0.083 2.59 0.083 14.474-0.001 30.848-8.04 44.97-22.066 1.895 0.788 5.364 1.405 9.692 2.174 4.087 0.727 8.7 1.547 13.425 2.744 -0.146 0.631-0.348 1.411-0.585 2.329 -2.096 8.12-6.979 27.043-1.495 49.473 -8.767 0.334-38.515 0.483-64.664 0.483C101.69 234.395 101.689 234.395 101.688 234.395z" data-colored="true" data-filltype="tone" data-stroketype="none" fill="#386e77" stroke-width="none" opacity="1"></path><path id="SvgjsPath2786" d="M168.437 182.109c-0.146 0.631-0.348 1.411-0.585 2.329 -0.04 0.155-0.083 0.322-0.125 0.486 -0.941-0.22-1.881-0.428-2.82-0.631 -3.222 8.649-3.854 17.85-5.906 27.138 0.91-9.095 2.662-18.19 5.227-27.284 -4.44-0.948-8.838-1.772-13.134-2.786 -8.754 9.71-17.364 16.523-32.093 21.21 11.967-5.532 22.172-12.342 30.639-21.558 -2.163-0.538-4.3-1.132-6.396-1.834 0.696-0.652 1.392-1.308 2.077-1.988 1.895 0.788 5.364 1.405 9.692 2.174C159.099 180.092 163.712 180.912 168.437 182.109zM51.595 180.616c1.914-0.521 3.81-1.086 5.666-1.735 -0.687-0.664-1.348-1.329-1.98-1.993 -2.11 1.098-4.475 1.485-8.266 2.107 -3.527 0.579-8.33 1.368-15.448 3.115 0.273 1.092 0.535 2.154 0.788 3.196 1.447-0.405 2.919-0.774 4.4-1.135 3.673 11.104 3.987 21.547 4.922 31.828 0.812-11.37-0.723-21.574-3.674-32.13 4.016-0.949 8.107-1.822 12.133-2.867 7.079 11.543 19.533 20.314 35.42 23.309C72.141 200.963 58.499 191.987 51.595 180.616z" data-colored="true" data-filltype="hl1" data-stroketype="none" fill="#4d7e86" stroke-width="none" opacity="1"></path><path id="SvgjsPath2787" d="M145.209 176.596c-12.454 12.454-29.807 23.209-47.42 22.08 -15.392-0.905-32.436-11.828-42.41-22.41 -4.033 2.277-8.788 1.604-24.42 5.479 4.935 19.644 6.746 30.475 2.08 52.55 16.636 0.813 118.965 0.757 133.95 0.091 -6.501-25.792 0.858-47.021 2.04-52.641C158.754 179.089 148.545 178.184 145.209 176.596zM53.459 178.186c0.933-0.373 1.051-0.508 1.62-0.87 15.396 17.658 35.784 28.655 57.57 22.37 13.08-3.646 23.385-12.047 32.529-22.2 1.487 0.895 4.46 1.528 5.471 1.73 -30.278 34.504-78.329 31.856-100.11-0.271C50.582 178.945 53.417 178.196 53.459 178.186zM163.129 199.735c-1.298 13.933-1.223 22.593 2.91 33.9 -44.676-0.606-84.856-0.854-132.11 0.069 1.255-3.44 2.254-6.91 2.91-10.729 2.972-21.908-2.426-33.57-4.94-40.771 0.793-0.157 3.361-0.55 3.39-0.55 3.845 8.002 7.613 37.449 3.34 49.54 0.096-0.22 0.865-2.031 0.91-2.28 0.01-0.02 0.02-0.06 0.01-0.109 -0.02-0.04-0.05-0.08-0.05-0.09 -0.105-0.115 0.32-1.77 0.36-1.921 4.014-14.127-0.24-38.177-4.09-45.22 1-0.163 11.258-1.77 14.56-2.57 3.163 4.947 3.782 5.401 6.42 8.5 8.407 9.228 21.518 15.88 30.9 17.171 24.688 3.962 45.419-4.096 62.78-24.48 0.24-0.3 0.471-0.59 0.69-0.88 2.487 0.472 1.79 0.42 13.31 2.29 -0.316 1-2.228 6.244-3.489 11 -1.95 8.286-3.622 23.485-1.511 31.27 1.513 6.478 1.03 3.788 1.03 5.07 0.069 0.229 0.841 2.093 0.91 2.25 -0.186-0.528-0.73-2.33-0.73-2.33 0.331 0-0.638-4.805-0.699-5.14 -2.313-10.642 1.77-30.923 4.96-42.05 0.205 0.031 2.867 0.453 3.2 0.52C165.977 188.26 163.35 195.114 163.129 199.735z" data-colored="true" data-filltype="sd3" data-stroketype="none" fill="#0c4049" stroke-width="none" opacity="1"></path></g><defs id="SvgjsDefs2782"></defs></svg>